<svg xmlns="http://www.w3.org/2000/svg" width="33.462" height="30.464" viewBox="0 0 33.462 30.464"><defs><style>.a{fill:#7d809d;}</style></defs><path class="a" d="M89.714,237.174C87.84,231.859,85.847,226,77.5,226c-3.719,0-6.507,1.17-8.525,3.578-1.75,2.088-2.693,4.762-3.691,7.592a4.508,4.508,0,0,0,5.105,5.938,28.937,28.937,0,0,1,12.193-.39l2.029.39a4.51,4.51,0,0,0,5.105-5.938Zm-4.735,4.013a30.829,30.829,0,0,0-12.934-.39l-2.029.39a2.548,2.548,0,0,1-2.886-3.361c1.865-5.292,3.477-9.862,10.367-9.862s8.5,4.57,10.367,9.862A2.548,2.548,0,0,1,84.979,241.187Z" transform="translate(-60.767 -212.732)"/><path class="a" d="M280.113,31.644a6.194,6.194,0,0,0,0-7.092,3.6,3.6,0,0,0-6.005,0,6.194,6.194,0,0,0,0,7.092A3.6,3.6,0,0,0,280.113,31.644Zm-3-6.748c1.169,0,2.157,1.467,2.157,3.2s-.988,3.2-2.157,3.2-2.157-1.467-2.157-3.2S275.941,24.9,277.11,24.9Z" transform="translate(-255.151 -22.936)"/><path class="a" d="M120.113,31.644a6.194,6.194,0,0,0,0-7.092,3.6,3.6,0,0,0-6.005,0,6.194,6.194,0,0,0,0,7.092A3.6,3.6,0,0,0,120.113,31.644Zm-3-6.748c1.169,0,2.157,1.467,2.157,3.2s-.988,3.2-2.157,3.2-2.157-1.467-2.157-3.2S115.941,24.9,117.11,24.9Z" transform="translate(-105.608 -22.936)"/><path class="a" d="M7.189,154.508A3.595,3.595,0,1,0,3.595,158.1,3.6,3.6,0,0,0,7.189,154.508Zm-3.595,1.634a1.634,1.634,0,1,1,1.634-1.634A1.636,1.636,0,0,1,3.595,156.142Z" transform="translate(0 -142.549)"/><path class="a" d="M405.595,150.913a3.595,3.595,0,1,0,3.595,3.595A3.6,3.6,0,0,0,405.595,150.913Zm0,5.229a1.634,1.634,0,1,1,1.634-1.634A1.636,1.636,0,0,1,405.595,156.142Z" transform="translate(-375.727 -142.549)"/><path class="a" d="M207.209,305.527h-1.634v-1.634a.98.98,0,0,0-1.961,0v1.634H201.98a.98.98,0,1,0,0,1.961h1.634v1.634a.98.98,0,0,0,1.961,0v-1.634h1.634a.98.98,0,1,0,0-1.961Z" transform="translate(-187.863 -284.615)"/></svg>