<svg xmlns="http://www.w3.org/2000/svg" width="27.999" height="30" viewBox="0 0 27.999 30"><defs><style>.a{fill:#7d809d;}</style></defs><path class="a" d="M59.244,22.279c-1.309-1.746-4.232-2.228-8.055-1.345-.082-.2-.167-.39-.254-.578A2,2,0,0,0,48.7,17.152,4.08,4.08,0,0,0,45.967,16a4.3,4.3,0,0,0-3.111,1.512,11.064,11.064,0,0,0-2.111,3.423c-3.824-.883-6.746-.4-8.055,1.345C31.2,24.265,32.053,27.506,34.963,31q-.238.286-.461.573a2,2,0,0,0-1.978,3.31c-.8,1.959-.742,3.626.166,4.837.881,1.174,2.491,1.777,4.615,1.777a15.43,15.43,0,0,0,3.44-.433,11.062,11.062,0,0,0,2.111,3.423,3.956,3.956,0,0,0,6.221,0,11.063,11.063,0,0,0,2.111-3.423q.4.093.792.166a2,2,0,0,0,3.942.185,4.8,4.8,0,0,0,3.321-1.7c1.489-1.985.637-5.226-2.273-8.721C59.881,27.506,60.733,24.264,59.244,22.279Zm-.8.6c1.158,1.544.336,4.334-2.139,7.356a29.049,29.049,0,0,0-3.593-3.306,25.107,25.107,0,0,0-1.161-5.051c3.307-.737,5.862-.374,6.894,1Zm-7.869,17a25.812,25.812,0,0,1-3.445-1.23,35.448,35.448,0,0,0,3.152-1.838q.659-.431,1.293-.887a23.02,23.02,0,0,1-1,3.956Zm-9.217,0a23.026,23.026,0,0,1-1-3.956q.633.455,1.293.887A35.435,35.435,0,0,0,44.8,38.648a25.816,25.816,0,0,1-3.445,1.23Zm0-17.757a25.81,25.81,0,0,1,3.445,1.23,35.449,35.449,0,0,0-3.152,1.838q-.659.431-1.293.887a23.02,23.02,0,0,1,1-3.956Zm.84,13.851c-.7-.458-1.384-.941-2.033-1.437a31.594,31.594,0,0,1,0-7.072c.649-.5,1.332-.978,2.033-1.437a34.055,34.055,0,0,1,3.769-2.139,34.044,34.044,0,0,1,3.768,2.139c.7.458,1.384.941,2.033,1.437a31.594,31.594,0,0,1,0,7.072c-.649.5-1.332.978-2.033,1.437a34.056,34.056,0,0,1-3.768,2.139A34.045,34.045,0,0,1,42.2,35.973Zm-3.123-2.306A26.99,26.99,0,0,1,36.286,31a27.022,27.022,0,0,1,2.79-2.668C39,29.21,38.967,30.1,38.967,31s.037,1.789.109,2.667Zm11.5-11.546a23.026,23.026,0,0,1,1,3.956q-.633-.455-1.293-.887a35.435,35.435,0,0,0-3.152-1.838,25.816,25.816,0,0,1,3.445-1.23Zm2.283,6.211A26.99,26.99,0,0,1,55.647,31a27.021,27.021,0,0,1-2.79,2.667c.072-.878.109-1.77.109-2.667S52.93,29.211,52.858,28.333ZM50.467,19a1,1,0,1,1-1-1A1,1,0,0,1,50.467,19Zm-4.5-2a3.025,3.025,0,0,1,1.923.772,2,2,0,0,0,2.193,3.13q.063.14.125.283a27.759,27.759,0,0,0-4.242,1.595,27.76,27.76,0,0,0-4.242-1.6C42.864,18.517,44.394,17,45.967,17ZM33.49,22.879c1.032-1.375,3.587-1.739,6.894-1a25.107,25.107,0,0,0-1.161,5.05,29.089,29.089,0,0,0-3.593,3.306C33.154,27.213,32.331,24.424,33.49,22.879Zm.477,9.621a1,1,0,1,1-1,1A1,1,0,0,1,33.967,32.5Zm-.477,6.621a3.871,3.871,0,0,1-.1-3.706,2,2,0,0,0,1.986-3.333q.124-.158.254-.317a29.048,29.048,0,0,0,3.593,3.306,25.109,25.109,0,0,0,1.161,5.051C37.077,40.859,34.522,40.5,33.49,39.121ZM45.967,45c-1.573,0-3.1-1.517-4.242-4.185a27.75,27.75,0,0,0,4.242-1.6,27.766,27.766,0,0,0,4.242,1.6C49.069,43.483,47.54,45,45.967,45Zm8-3a1,1,0,1,1,1-1A1,1,0,0,1,53.967,42Zm4.477-2.879a3.78,3.78,0,0,1-2.565,1.293,2,2,0,0,0-3.761-.174q-.28-.053-.567-.118a25.106,25.106,0,0,0,1.161-5.05A29.083,29.083,0,0,0,56.3,31.765c2.475,3.022,3.3,5.811,2.139,7.356Z" transform="translate(-31.965 -16)"/><path class="a" d="M196.05,192a4.05,4.05,0,1,0,4.05,4.05A4.05,4.05,0,0,0,196.05,192Zm0,7.088a3.038,3.038,0,1,1,3.038-3.038A3.038,3.038,0,0,1,196.05,199.088Z" transform="translate(-182.048 -181.05)"/></svg>