<svg xmlns="http://www.w3.org/2000/svg" width="26.74" height="30" viewBox="0 0 26.74 30"><defs><style>.a{fill:#7d809d;}</style></defs><path class="a" d="M26.54,14.233l-1.194-.513V12.9A11.753,11.753,0,0,0,17.472,1.769V.619A.619.619,0,0,0,16.854,0H10.235a.619.619,0,0,0-.618.619V1.775A11.753,11.753,0,0,0,1.742,12.909v.823l-1.182.5a.618.618,0,0,0-.377.569V18.05a.619.619,0,0,0,.619.618h.8v1.237a.619.619,0,0,0,.618.618H4.446a9.358,9.358,0,0,0,.922,2.214L3.8,24.309a.618.618,0,0,0,0,.872L6.425,27.81a.618.618,0,0,0,.872,0l1.571-1.571a9.344,9.344,0,0,0,2.208.922v2.221A.619.619,0,0,0,11.7,30h3.711a.619.619,0,0,0,.619-.618V27.161a9.336,9.336,0,0,0,2.214-.922L19.81,27.81a.618.618,0,0,0,.872,0l2.629-2.629a.618.618,0,0,0,0-.872L21.74,22.738a9.356,9.356,0,0,0,.922-2.214h2.22a.619.619,0,0,0,.619-.618V18.668h.8a.619.619,0,0,0,.618-.618V14.8A.619.619,0,0,0,26.54,14.233Zm-15.7-12.99h5.394V11.579H10.854ZM24.27,19.287H22.21a.618.618,0,0,0-.619.488A8.13,8.13,0,0,1,20.46,22.5a.619.619,0,0,0,.08.773l1.478,1.478-1.769,1.757-1.478-1.478a.618.618,0,0,0-.773-.08,8.135,8.135,0,0,1-2.722,1.132.619.619,0,0,0-.489.619v2.084H12.313v-2.1a.618.618,0,0,0-.489-.618A8.108,8.108,0,0,1,9.1,24.928a.619.619,0,0,0-.773.08L6.852,26.487,5.1,24.736l1.478-1.478a.618.618,0,0,0,.08-.773,8.139,8.139,0,0,1-1.15-2.709.619.619,0,0,0-.619-.488H2.831v-.619H8.485a5.1,5.1,0,0,0,10.12,0h5.66ZM9.746,18.668h7.614a3.86,3.86,0,0,1-7.621,0Zm15.947-1.237H1.415V15.21L2.608,14.7a.617.617,0,0,0,.377-.569V12.891a10.515,10.515,0,0,1,6.631-9.8V12.2a.619.619,0,0,0,.618.618h6.631a.619.619,0,0,0,.619-.618V3.086A10.515,10.515,0,0,1,24.122,12.9V14.14a.617.617,0,0,0,.377.569l1.194.513v2.208Zm0,0" transform="translate(-0.184 0)"/></svg>