<svg xmlns="http://www.w3.org/2000/svg" width="29.94" height="30.168" viewBox="0 0 29.94 30.168"><defs><style>.a{fill:#FFFFFF;}</style></defs><g transform="translate(19.202 13.312)"><circle class="a" cx="0.594" cy="0.594" r="0.594"/></g><g transform="translate(10.942 16.403)"><path class="a" d="M197.279,278.745a.594.594,0,0,0-.674.5,3.235,3.235,0,0,1-2.478,2.431,4.747,4.747,0,0,1-4.8-1.066.594.594,0,0,0-.875.8,5.232,5.232,0,0,0,2.859,1.562,6.331,6.331,0,0,0,1.243.121,6.6,6.6,0,0,0,1.925-.285,4.382,4.382,0,0,0,3.3-3.392A.594.594,0,0,0,197.279,278.745Z" transform="translate(-188.293 -278.738)"/></g><g transform="translate(0)"><path class="a" d="M30.027,11.219A7.3,7.3,0,0,0,25.7,8.85a33.429,33.429,0,0,0,4.22-3.292c1.6-1.522,2.133-2.592,1.686-3.366-.5-.862-1.934-.856-4.521.019a45.249,45.249,0,0,0-7.667,3.616c-.477.275-.949.557-1.41.841a3.165,3.165,0,0,1,.639-3.03,2.252,2.252,0,0,0,.33-2.379A2.38,2.38,0,0,0,16.742,0h-.028a14.625,14.625,0,0,0-9.9,3.994A14.85,14.85,0,0,0,2,13.605,15.135,15.135,0,0,0,17.023,30.168a16.075,16.075,0,0,0,6.31-1.23,14.2,14.2,0,0,0,4.647-3.167,14,14,0,0,0,2.874-4.3,12.47,12.47,0,0,0,1.024-4.656A8.218,8.218,0,0,0,30.027,11.219ZM18.075,8.013c.624-.393,1.273-.785,1.931-1.165a45.427,45.427,0,0,1,7.152-3.415c2.269-.8,3.2-.751,3.415-.647-.019.137-.189.747-1.678,2.118A37.491,37.491,0,0,1,23.781,8.7c-.649.411-1.325.82-2.008,1.214-.942.544-1.883,1.052-2.807,1.517A8.828,8.828,0,0,0,17.3,8.514Q17.679,8.263,18.075,8.013ZM17.9,11.95a30.215,30.215,0,0,1-4.41,1.74,2.94,2.94,0,0,0-.889-1.567,30.3,30.3,0,0,1,3.71-2.945A7.682,7.682,0,0,1,17.9,11.95ZM30.7,16.8c-.084,5.863-5.337,12.192-13.676,12.192a13.907,13.907,0,0,1-.309-27.811h.026a1.222,1.222,0,0,1,1.173.593,1.074,1.074,0,0,1-.194,1.136,4.325,4.325,0,0,0-.728,4.4c-.316.2-.626.408-.926.611l0,0a31.385,31.385,0,0,0-4.509,3.58,2.93,2.93,0,0,0-2.421.237c-1.224.707-2.832,4-3.141,4.656a.589.589,0,0,0,.485.84c.326.026,1.25.093,2.28.093a8.03,8.03,0,0,0,3.323-.486,2.939,2.939,0,0,0,1.405-1.927A31.17,31.17,0,0,0,18.86,12.8c1.146-.558,2.324-1.185,3.5-1.865.6-.345,1.189-.7,1.763-1.06h.01C29.047,10.012,30.747,13.542,30.7,16.8ZM12.369,14.4a1.765,1.765,0,0,1-.881,1.42,11.456,11.456,0,0,1-4.043.293,11.455,11.455,0,0,1,2.276-3.355A1.768,1.768,0,0,1,12.369,14.4Z" transform="translate(-1.94)"/></g><g transform="translate(8.001 3.672)"><path class="a" d="M140.3,61.84a2.375,2.375,0,1,0,2.375,2.375A2.378,2.378,0,0,0,140.3,61.84Zm0,3.563a1.188,1.188,0,1,1,1.188-1.188A1.189,1.189,0,0,1,140.3,65.4Z" transform="translate(-137.922 -61.84)"/></g><g transform="translate(5.059 19.449)"><path class="a" d="M90.3,330.55a2.375,2.375,0,1,0,2.375,2.375A2.378,2.378,0,0,0,90.3,330.55Zm0,3.563a1.188,1.188,0,1,1,1.188-1.188A1.189,1.189,0,0,1,90.3,334.113Z" transform="translate(-87.922 -330.55)"/></g><g transform="translate(10.943 22.957)"><path class="a" d="M190.3,390.55a2.375,2.375,0,1,0,2.375,2.375A2.378,2.378,0,0,0,190.3,390.55Zm0,3.563a1.188,1.188,0,1,1,1.188-1.188A1.189,1.189,0,0,1,190.3,394.113Z" transform="translate(-187.922 -390.55)"/></g><g transform="translate(18.003 21.769)"><path class="a" d="M310.3,370.55a2.375,2.375,0,1,0,2.375,2.375A2.378,2.378,0,0,0,310.3,370.55Zm0,3.563a1.188,1.188,0,1,1,1.188-1.188A1.189,1.189,0,0,1,310.3,374.113Z" transform="translate(-307.922 -370.55)"/></g><g transform="translate(22.688 15.919)"><path class="a" d="M390.3,270.55a2.375,2.375,0,1,0,2.375,2.375A2.378,2.378,0,0,0,390.3,270.55Zm0,3.563a1.188,1.188,0,1,1,1.188-1.188A1.189,1.189,0,0,1,390.3,274.113Z" transform="translate(-387.922 -270.55)"/></g></svg>