<svg xmlns="http://www.w3.org/2000/svg" width="31.004" height="30" viewBox="0 0 31.004 30"><defs><style>.a{fill:#7d809d;}</style></defs><g transform="translate(12.852 10.389)"><path class="a" d="M204.77,176.232h-4.24a.53.53,0,0,0-.53.53V191.6a.53.53,0,0,0,.53.53h4.24a.53.53,0,0,0,.53-.53V176.762A.53.53,0,0,0,204.77,176.232Zm-.53,14.841h-3.18V177.292h3.18Z" transform="translate(-200 -176.232)"/></g><g transform="translate(25.173 8.269)"><path class="a" d="M396.77,144.232h-4.24a.53.53,0,0,0-.53.53v16.961a.53.53,0,0,0,.53.53h4.24a.53.53,0,0,0,.53-.53V144.762A.53.53,0,0,0,396.77,144.232Zm-.53,16.961h-3.18v-15.9h3.18Z" transform="translate(-392 -144.232)"/></g><g transform="translate(19.02 19.93)"><path class="a" d="M300.77,320.232h-4.24a.53.53,0,0,0-.53.53v5.3a.53.53,0,0,0,.53.53h4.24a.53.53,0,0,0,.53-.53v-5.3A.53.53,0,0,0,300.77,320.232Zm-.53,5.3h-3.18v-4.24h3.18Z" transform="translate(-296 -320.232)"/></g><g transform="translate(0.53 12.509)"><path class="a" d="M12.77,208.232H8.53a.53.53,0,0,0-.53.53v12.721a.53.53,0,0,0,.53.53h4.24a.53.53,0,0,0,.53-.53V208.762A.53.53,0,0,0,12.77,208.232Zm-.53,12.721H9.06V209.292h3.18Z" transform="translate(-8 -208.232)"/></g><g transform="translate(6.683 15.689)"><path class="a" d="M108.77,256.232h-4.24a.53.53,0,0,0-.53.53v9.54a.53.53,0,0,0,.53.53h4.24a.53.53,0,0,0,.53-.53v-9.54A.53.53,0,0,0,108.77,256.232Zm-.53,9.54h-3.18v-8.48h3.18Z" transform="translate(-104 -256.232)"/></g><g transform="translate(1.058 0)"><path class="a" d="M42.825,7.768a2.106,2.106,0,0,0-2.093,2.12,2.164,2.164,0,0,0,.657,1.573L37.108,19.53a1.846,1.846,0,0,0-1.176.056l-3.982-6.141A2.161,2.161,0,0,0,31.8,10.45a2.025,2.025,0,0,0-2.914.155,2.166,2.166,0,0,0-.327,2.338l-3.131,2.678a2,2,0,0,0-2.747.331L20.054,14.6a2.12,2.12,0,0,0-1.586-2.516,2.064,2.064,0,0,0-2.449,1.63A2.12,2.12,0,0,0,17.6,16.232a2,2,0,0,0,1.98-.686L22.211,16.9a2.122,2.122,0,0,0,1.565,2.53,2.063,2.063,0,0,0,2.462-1.608,2.173,2.173,0,0,0-.155-1.38l3.131-2.678a1.949,1.949,0,0,0,1.874.276l3.981,6.141a2.161,2.161,0,0,0,.158,2.994,2.025,2.025,0,0,0,2.914-.162,2.162,2.162,0,0,0-.131-2.969l4.281-8.069a1.983,1.983,0,0,0,.5.068,2.136,2.136,0,0,0,.03-4.271ZM18.038,15.219a1.06,1.06,0,1,1,1.032-1.06A1.046,1.046,0,0,1,18.038,15.219Zm6.189,3.18a1.06,1.06,0,1,1,1.032-1.06A1.046,1.046,0,0,1,24.227,18.4Zm6.189-5.3a1.06,1.06,0,1,1,1.032-1.06A1.046,1.046,0,0,1,30.416,13.1Zm6.19,9.54a1.06,1.06,0,1,1,1.032-1.06A1.046,1.046,0,0,1,36.606,22.64ZM42.8,10.979a1.06,1.06,0,1,1,1.032-1.06A1.046,1.046,0,0,1,42.8,10.979Z" transform="translate(-15.973 -7.768)"/></g><g transform="translate(0 26.82)"><path class="a" d="M30.487,424.232H.517a.524.524,0,0,0-.517.53v2.12a.524.524,0,0,0,.517.53h29.97a.524.524,0,0,0,.517-.53v-2.12A.523.523,0,0,0,30.487,424.232Zm-.517,2.12H1.033v-1.06H29.97Z" transform="translate(0 -424.232)"/></g></svg>