<svg xmlns="http://www.w3.org/2000/svg" width="41.786" height="29.98" viewBox="0 0 41.786 29.98"><defs><style>.a{fill:#7d809d;}</style></defs><g transform="translate(0 0)"><path class="a" d="M40.977,60.8H38.223v-.94a.81.81,0,0,0-.583-.81A22.814,22.814,0,0,0,31.8,58.3c-3.24,0-7.654.729-10.918,4.05C17.641,59,13.194,58.3,9.963,58.3a22.814,22.814,0,0,0-5.84.745.81.81,0,0,0-.583.81v.931H.81A.81.81,0,0,0,0,61.6V87.471a.808.808,0,0,0,1.207.7c.081-.04,8.181-4.471,19.488-1.62h.194a.811.811,0,0,0,.194,0c11.34-2.875,19.439,1.547,19.488,1.62a.81.81,0,0,0,1.215-.7V61.608A.81.81,0,0,0,40.977,60.8ZM1.62,86.183V62.418H3.556V82.732a.81.81,0,0,0,.931.81,35.448,35.448,0,0,1,5.062-.4,21.01,21.01,0,0,1,6.917,1.045A29.777,29.777,0,0,0,1.62,86.183Zm7.93-4.657a35.641,35.641,0,0,0-4.406.283V60.5a22.34,22.34,0,0,1,4.8-.535c3.029,0,7.209.7,10.108,3.969l.024,20.176C18.394,83.008,15.106,81.525,9.55,81.525ZM21.7,63.933c2.9-3.24,7.079-3.969,10.108-3.969a22.437,22.437,0,0,1,4.8.535v21.31a35.631,35.631,0,0,0-4.382-.292C26.7,81.517,23.408,83,21.7,84.1Zm18.459,22.25a29.783,29.783,0,0,0-14.879-2,21.059,21.059,0,0,1,6.95-1.045,35.431,35.431,0,0,1,5.095.4.81.81,0,0,0,.931-.81V62.418h1.936Z" transform="translate(0 -58.303)"/></g></svg>