<svg xmlns="http://www.w3.org/2000/svg" width="34.231" height="30" viewBox="0 0 34.231 30"><defs><style>.a{fill:#7d809d;}</style></defs><g transform="translate(6.619 0.232)"><path class="a" d="M105.09,34.787a3.6,3.6,0,1,0,3.6,3.6A3.6,3.6,0,0,0,105.09,34.787Zm0,6.089a2.49,2.49,0,1,1,2.49-2.49A2.493,2.493,0,0,1,105.09,40.876Z" transform="translate(-101.491 -34.787)"/></g><g transform="translate(20.42 0.232)"><path class="a" d="M316.726,34.787a3.6,3.6,0,1,0,3.6,3.6A3.6,3.6,0,0,0,316.726,34.787Zm0,6.089a2.49,2.49,0,1,1,2.49-2.49A2.493,2.493,0,0,1,316.726,40.876Z" transform="translate(-313.127 -34.787)"/></g><g transform="translate(0 0)"><path class="a" d="M28.6,41.84,33.953,34.1a1.566,1.566,0,1,0-2.576-1.783l-4.365,6.31a1.8,1.8,0,0,1-1.471.673h-2.7a1.8,1.8,0,0,1-1.471-.673l-2.351-3.4c.815-1.177,1.052-1.4,1.059-2a1.568,1.568,0,0,0-2.855-.91l-.109.157-.109-.157A1.567,1.567,0,0,0,14.433,34.1l.781,1.128-2.351,3.4a1.8,1.8,0,0,1-1.471.673H8.7a1.8,1.8,0,0,1-1.471-.673L2.86,32.319A1.567,1.567,0,0,0,.283,34.1L5.637,41.84a6.341,6.341,0,0,1,.818,2.9V60.024a1.618,1.618,0,0,0,1.616,1.616h3.944a1.618,1.618,0,0,0,1.616-1.616V48.141a.5.5,0,1,0-1,0V60.024a.613.613,0,0,1-.613.613h-1.47V51.311a.5.5,0,0,0-1,0v9.327H8.071a.613.613,0,0,1-.613-.613V44.742a7.334,7.334,0,0,0-.971-3.435c-.012-.02-5.366-7.758-5.379-7.777a.564.564,0,0,1,.617-.862c.267.076-.027-.264,4.679,6.538a2.812,2.812,0,0,0,2.291,1.1h2.7a2.817,2.817,0,0,0,2.291-1.1c4.716-6.817,4.407-6.435,4.628-6.521a.564.564,0,0,1,.668.845l-5.363,7.753-.016.024a7.334,7.334,0,0,0-.971,3.435V45.8a.5.5,0,0,0,1,0V44.742a6.394,6.394,0,0,1,.818-2.9l2.668-3.857,2.668,3.857a6.392,6.392,0,0,1,.819,2.9v1.382l-1.865,7.4a1.464,1.464,0,0,0,.205,1.186c.409.529,1.03.465,1.66.465v4.853a1.618,1.618,0,0,0,1.616,1.616h3.944a1.618,1.618,0,0,0,1.616-1.616v-.95a.5.5,0,0,0-1,0v.95a.613.613,0,0,1-.613.613h-1.47V55.171h2.083v1.562a.5.5,0,1,0,1,0V55.171c.631,0,1.243.072,1.652-.419a1.452,1.452,0,0,0,.182-1.355l-1.834-7.272V44.742A6.392,6.392,0,0,1,28.6,41.84ZM15.823,34.348c-.6-.87-.709-.95-.656-1.239a.564.564,0,0,1,1.017-.219l.324.468Zm7.868,26.289H22.22a.613.613,0,0,1-.612-.613V55.171h2.083v5.466Zm3.1-14.328c1.968,7.8,1.978,7.67,1.869,7.8-.066.079.26.058-8.63.058a.414.414,0,0,1-.293-.074c-.117-.147-.117.027,1.853-7.785a11.46,11.46,0,0,0,.015-1.567,7.29,7.29,0,0,0-.987-3.459L17.728,37.1l.685-.99,2.15,3.107a2.8,2.8,0,0,0,2.282,1.087h2.7a2.806,2.806,0,0,0,2.282-1.087l.009-.012c4.7-6.8,4.4-6.432,4.628-6.521a.564.564,0,0,1,.668.845c-.013.019-5.367,7.757-5.379,7.777a7.334,7.334,0,0,0-.971,3.435A11.468,11.468,0,0,0,26.793,46.309Z" transform="translate(0 -31.641)"/></g></svg>