<svg xmlns="http://www.w3.org/2000/svg" width="22.266" height="30" viewBox="0 0 22.266 30"><defs><style>.a{fill:#7d809d;}</style></defs><g transform="translate(0 0)"><path class="a" d="M86.509,25.313H84.575V24.229a4.589,4.589,0,0,0-1.166-3.056q.141-.128.277-.264A7.59,7.59,0,0,0,85.335,12.6a2.921,2.921,0,0,0-.918-2.824l.177-.307a1.761,1.761,0,0,0-.186-2.021l.715-1.238a1.183,1.183,0,0,0,.3-.04,1.164,1.164,0,0,0,.712-.545L87.016,4.1a.586.586,0,0,0-.214-.8L81.22.079a.586.586,0,0,0-.8.214l-.879,1.522a1.172,1.172,0,0,0,0,1.171l-.715,1.239a1.766,1.766,0,0,0-1.844.849L73.76,10.656a1.766,1.766,0,0,0,.186,2.021l-.636,1.1a1.174,1.174,0,0,0,.429,1.6l3.552,2.051a1.172,1.172,0,0,0,1.6-.429l.636-1.1a1.737,1.737,0,0,0,.316.03,1.774,1.774,0,0,0,.46-.061,1.745,1.745,0,0,0,1.068-.818l.176-.306a2.913,2.913,0,0,0,.81.148,4.114,4.114,0,0,1-4.052,4.735H76.255a.586.586,0,1,0,0,1.172h2.051a.586.586,0,0,1,0,1.172H68.931a.586.586,0,1,1,0-1.172h2.05a.586.586,0,0,0,0-1.172h-2.05a1.758,1.758,0,1,0,0,3.516h1.481v2.168H67.759A1.76,1.76,0,0,0,66,27.071v2.344a.586.586,0,0,0,.586.586H87.681a.586.586,0,0,0,.586-.586V27.071A1.76,1.76,0,0,0,86.509,25.313ZM83.4,24.229v1.084H82.231V24.229a2.252,2.252,0,0,0-.826-1.743,7.561,7.561,0,0,0,1.075-.592,3.42,3.42,0,0,1,.922,2.335Zm-5.1-1.084h1.67a1.085,1.085,0,0,1,1.084,1.084v1.084h-4.2V23.145Zm4.17-9.42a1.758,1.758,0,1,1,1.758-1.758A1.76,1.76,0,0,1,82.475,13.725Zm-2.584-9,.586-1.015L84.029,5.76l-.586,1.015Zm1.25-3.338,4.567,2.637-.586,1.015L80.555,2.4ZM74.325,14.366l.586-1.015L78.463,15.4l-.586,1.015Zm6.032.1a.589.589,0,0,1-.8.214L74.99,12.043h0a.589.589,0,0,1-.214-.8L78,5.661a.589.589,0,0,1,.8-.214l4.567,2.637a.587.587,0,0,1,.214.8l-.176.306a2.928,2.928,0,0,0-2.869,4.97Zm-.5,6.1a5.268,5.268,0,0,0,3.654-5.861,2.938,2.938,0,0,0,1.056-.694,6.469,6.469,0,0,1-4.542,7.727,1.757,1.757,0,0,0-.168-1.173Zm-8.275,2.578h4.1v2.168h-4.1Zm15.511,5.684H67.173V27.071a.587.587,0,0,1,.586-.586h18.75a.587.587,0,0,1,.586.586Z" transform="translate(-66.001 0)"/><path class="a" d="M187.217,335.611a.61.61,0,0,0-.61-.61h0a.61.61,0,1,0,.61.61Z" transform="translate(-178.982 -315.405)"/></g></svg>