<svg xmlns="http://www.w3.org/2000/svg" width="27.536" height="30.039" viewBox="0 0 27.536 30.039"><defs><style>.a{fill:#7d809d;}</style></defs><g transform="translate(-1)"><path class="a" d="M16.627,10.024a.636.636,0,0,1-.266-.059A.626.626,0,0,1,16,9.4V3.127a.628.628,0,0,1,1.028-.483L20.79,5.779a.628.628,0,0,1,0,.964L17.028,9.879A.627.627,0,0,1,16.627,10.024Zm.627-5.559V8.058l2.156-1.8Z" transform="translate(3.758 0.635)"/><path class="a" d="M23.659,13.795H14.881A1.883,1.883,0,0,1,13,11.913V1.881A1.883,1.883,0,0,1,14.881,0h8.778A1.883,1.883,0,0,1,25.54,1.881V11.913A1.883,1.883,0,0,1,23.659,13.795ZM14.881,1.254a.627.627,0,0,0-.627.627V11.913a.627.627,0,0,0,.627.627h8.778a.627.627,0,0,0,.627-.627V1.881a.627.627,0,0,0-.627-.627Z" transform="translate(2.996)"/><path class="a" d="M1.627,22.573A.627.627,0,0,1,1,21.946V3.135A3.139,3.139,0,0,1,4.135,0h8.778a.627.627,0,0,1,0,1.254H4.135A1.883,1.883,0,0,0,2.254,3.135V21.946A.627.627,0,0,1,1.627,22.573Z"/><path class="a" d="M9.151,21.778H4.135a3.135,3.135,0,0,1,0-6.27H22.319V13.627a.627.627,0,0,1,1.254,0v2.508a.627.627,0,0,1-.627.627H4.135a1.881,1.881,0,0,0,0,3.762H9.151a.627.627,0,1,1,0,1.254Z" transform="translate(0 3.258)"/><path class="a" d="M20.151,21.27H12.627a.627.627,0,1,1,0-1.254h6.9V15.627a.627.627,0,1,1,1.254,0v5.016A.627.627,0,0,1,20.151,21.27Z" transform="translate(2.756 3.765)"/><path class="a" d="M13.9,25.778a.633.633,0,0,1-.393-.137l-2.743-2.2L8.018,25.64A.627.627,0,0,1,7,25.151V17.627a.627.627,0,0,1,1.254,0v6.219l2.117-1.693a.628.628,0,0,1,.784,0l2.116,1.693V17.627a.627.627,0,0,1,1.254,0v7.524a.625.625,0,0,1-.627.627Z" transform="translate(1.504 4.261)"/><path class="a" d="M16.913,18.254H5.627a.627.627,0,1,1,0-1.254H16.913a.627.627,0,1,1,0,1.254Z" transform="translate(0.999 4.276)"/></g></svg>