<svg xmlns="http://www.w3.org/2000/svg" width="38.647" height="30" viewBox="0 0 38.647 30"><defs><style>.a{fill:#7d809d;}</style></defs><path class="a" d="M38.572,16.393,32.627,3.3a.84.84,0,0,0-.766-.5H22.936a3.728,3.728,0,0,0-7.224,0H6.787a.831.831,0,0,0-.766.471L.076,16.36A1.161,1.161,0,0,0,0,16.73a6.786,6.786,0,0,0,13.573.017A.8.8,0,0,0,13.5,16.4L8.092,4.488h7.586a3.7,3.7,0,0,0,2.8,2.854V24.779H14.727a2.67,2.67,0,0,0-2.644,2.644v1.768a.841.841,0,0,0,.876.808H25.605a.846.846,0,0,0,.876-.808V27.423a2.67,2.67,0,0,0-2.644-2.644H20.166V7.342a3.726,3.726,0,0,0,2.8-2.854h7.586L25.15,16.4a.822.822,0,0,0-.076.345,6.786,6.786,0,1,0,13.573,0,.835.835,0,0,0-.076-.354ZM6.787,5.717l4.639,10.222H2.147Zm0,16.166a5.168,5.168,0,0,1-5.035-4.26H11.813A5.152,5.152,0,0,1,6.787,21.883Zm18.01,5.54v.893H13.767v-.893a.982.982,0,0,1,.96-.96h9.111a.981.981,0,0,1,.96.96ZM19.324,5.759a2.038,2.038,0,1,1,2.038-2.038A2.037,2.037,0,0,1,19.324,5.759ZM36.5,15.939H27.222L31.861,5.717Zm-4.639,5.944a5.167,5.167,0,0,1-5.035-4.26H36.888A5.153,5.153,0,0,1,31.861,21.883Zm0,0" transform="translate(0 0)"/></svg>