<svg xmlns="http://www.w3.org/2000/svg" width="30.16" height="30.16" viewBox="0 0 30.16 30.16"><defs><style>.a{fill:#7d809d;}</style></defs><g transform="translate(8.518 3.824)"><path class="a" d="M157.508,76.538a.589.589,0,0,0-.363-.388,4.187,4.187,0,0,0-.777-.182,5.005,5.005,0,0,0,1.14-4.913.589.589,0,0,0-.363-.388,5.07,5.07,0,0,0-3.168.033,5.292,5.292,0,0,0,.147-1.258,5,5,0,0,0-2.671-4.458.589.589,0,0,0-.531-.017,4.985,4.985,0,0,0-2.706,4.475,5.291,5.291,0,0,0,.148,1.261,5.069,5.069,0,0,0-3.175-.035.589.589,0,0,0-.363.388,5.005,5.005,0,0,0,1.14,4.913,4.187,4.187,0,0,0-.777.182.589.589,0,0,0-.363.388,5,5,0,0,0,1.264,5.041,4.888,4.888,0,0,0,3.536,1.489,5.269,5.269,0,0,0,.948-.086v3.854a.589.589,0,1,0,1.178,0V82.98a5.277,5.277,0,0,0,.957.088,4.888,4.888,0,0,0,3.536-1.489A5,5,0,0,0,157.508,76.538Zm-6.934,4.607a3.929,3.929,0,0,1-.086.654,3.886,3.886,0,0,1-4.614-4.617,3.95,3.95,0,0,1,2.024.1q.084.032.168.06a3.862,3.862,0,0,1,1.369.9,3.755,3.755,0,0,1,1.14,2.517Zm0-5.482a3.927,3.927,0,0,1-.086.654,3.915,3.915,0,0,1-1.983-.079q-.128-.049-.254-.09a3.89,3.89,0,0,1-1.327-.884,3.8,3.8,0,0,1-1.05-3.564,3.82,3.82,0,0,1,3.561,1.053l.025.026q.077.087.155.167a3.73,3.73,0,0,1,.96,2.325Zm.6-2.956a4,4,0,0,1-.721-.6l-.084-.091a3.758,3.758,0,0,1-.972-2.578,3.8,3.8,0,0,1,1.773-3.263,3.8,3.8,0,0,1,1.778,3.263,3.757,3.757,0,0,1-.881,2.479c-.1.1-.185.192-.269.289A3.956,3.956,0,0,1,151.171,72.707Zm.584,2.765a3.729,3.729,0,0,1,.911-2.466c.087-.086.174-.179.26-.279a3.8,3.8,0,0,1,3.534-1.029,3.8,3.8,0,0,1-1.05,3.565,3.89,3.89,0,0,1-1.325.884q-.128.041-.258.091a3.913,3.913,0,0,1-1.981.079,3.954,3.954,0,0,1-.091-.83C151.756,75.482,151.756,75.477,151.756,75.472Zm3.655,5.274a3.8,3.8,0,0,1-3.563,1.054,3.821,3.821,0,0,1,1.052-3.565,3.889,3.889,0,0,1,1.328-.885q.126-.04.253-.089a3.916,3.916,0,0,1,1.979-.08A3.8,3.8,0,0,1,155.411,80.746Z" transform="translate(-144.606 -64.913)"/></g><g transform="translate(0)"><path class="a" d="M18.223.328A15.182,15.182,0,0,0,15.08,0,15.08,15.08,0,0,0,3.187,24.351a2.236,2.236,0,1,0,.879-.79A13.908,13.908,0,0,1,17.979,1.481.589.589,0,0,0,18.223.328ZM4.319,24.813a1.06,1.06,0,1,1-.311.75A1.057,1.057,0,0,1,4.319,24.813Z" transform="translate(0 0)"/></g><g transform="translate(11.932 2.359)"><path class="a" d="M217.6,43.5a2.236,2.236,0,1,0-.879.79,13.908,13.908,0,0,1-13.47,22.167.589.589,0,0,0-.207,1.16,15.22,15.22,0,0,0,2.662.234A15.08,15.08,0,0,0,217.6,43.5Zm-1.133-.462a1.06,1.06,0,1,1,.311-.75A1.053,1.053,0,0,1,216.465,43.039Z" transform="translate(-202.556 -40.051)"/></g><g transform="translate(9.093 27.943)"><path class="a" d="M155.167,474.4l-.222.545.221-.546a.589.589,0,0,0-.442,1.092l.018.007a.589.589,0,0,0,.425-1.1Z" transform="translate(-154.355 -474.36)"/></g><g transform="translate(19.906 1.046)"><path class="a" d="M338.747,17.8l-.01,0a.589.589,0,1,0-.438,1.094l.007,0a.589.589,0,1,0,.441-1.092Z" transform="translate(-337.929 -17.754)"/></g></svg>